# xmcd CD database file
#
# Track frame offsets:
#	150
#	20389
#	40439
#	56806
#	76774
#	97073
#	117601
#	135190
#	153027
#	171697
#	191375
#	213327
#
# Disc length: 3123 seconds
#
# Revision: 0
# Processed by: cddbd v1.5.2PL0 Copyright (c) Steve Scherf et al.
# Submitted via: jetAudio 7
#
DISCID=9f0c310c
DTITLE=随风 - 随风
DYEAR=1900
DGENRE=未知流派
TTITLE0=我是不是你最疼爱的人
TTITLE1=是你是你是你
TTITLE2=于是我学会了原谅
TTITLE3=你知道应该如何爱着我
TTITLE4=心情
TTITLE5=只要你过得比我好
TTITLE6=思念是种病
TTITLE7=别说可惜
TTITLE8=鲁冰花
TTITLE9=情字
TTITLE10=雪在烧
TTITLE11=看不到你的心
EXTD=经典校园情怀・欧美篇
EXTT0=经典校园情怀・欧美篇
EXTT1=经典校园情怀・欧美篇
EXTT2=经典校园情怀・欧美篇
EXTT3=经典校园情怀・欧美篇
EXTT4=经典校园情怀・欧美篇
EXTT5=经典校园情怀・欧美篇
EXTT6=经典校园情怀・欧美篇
EXTT7=经典校园情怀・欧美篇
EXTT8=经典校园情怀・欧美篇
EXTT9=经典校园情怀・欧美篇
EXTT10=经典校园情怀・欧美篇
EXTT11=经典校园情怀・欧美篇
PLAYORDER=
